<svg width="1025" height="243" viewBox="0 0 1025 243" fill="none" xmlns="http://www.w3.org/2000/svg">
<rect width="1025" height="243" fill="white"/>
<line x1="248" y1="81.5" x2="770" y2="81.5" stroke="black"/>
<circle cx="276" cy="82" r="43" fill="url(#paint0_diamond_930:267)"/>
<circle cx="509" cy="82" r="43" fill="black"/>
<circle cx="751" cy="82" r="43" fill="black"/>
<path d="M205.566 130.2C206.326 130.2 206.866 130.14 207.186 130.02C207.506 129.9 207.746 129.68 207.906 129.36H208.926L210.246 134.79L209.226 135.06C208.846 134.06 208.496 133.3 208.176 132.78C207.856 132.26 207.516 131.9 207.156 131.7C206.816 131.5 206.376 131.4 205.836 131.4C205.036 131.4 204.356 131.71 203.796 132.33C203.256 132.93 202.986 133.68 202.986 134.58V148.92C202.986 149.78 203.236 150.49 203.736 151.05C204.256 151.61 204.906 151.89 205.686 151.89C206.626 151.89 207.386 151.48 207.966 150.66C208.546 149.82 208.836 148.71 208.836 147.33V146.85H210.126V146.88C210.126 149.06 209.716 150.68 208.896 151.74C208.096 152.78 206.856 153.3 205.176 153.3C203.436 153.3 202.076 152.73 201.096 151.59C200.116 150.45 199.626 148.88 199.626 146.88V136.62C199.626 134.52 200.126 132.93 201.126 131.85C202.146 130.75 203.626 130.2 205.566 130.2ZM218.129 136.35C219.969 136.35 221.389 136.91 222.389 138.03C223.389 139.15 223.889 140.73 223.889 142.77V147.03C223.889 151.31 221.969 153.45 218.129 153.45C216.249 153.45 214.809 152.9 213.809 151.8C212.809 150.7 212.309 149.11 212.309 147.03V142.77C212.309 140.65 212.799 139.05 213.779 137.97C214.779 136.89 216.229 136.35 218.129 136.35ZM218.129 152.28C218.849 152.28 219.439 152.02 219.899 151.5C220.359 150.96 220.589 150.27 220.589 149.43V140.4C220.589 139.56 220.359 138.87 219.899 138.33C219.439 137.79 218.849 137.52 218.129 137.52C217.429 137.52 216.839 137.8 216.359 138.36C215.899 138.9 215.669 139.58 215.669 140.4V149.43C215.669 150.29 215.889 150.98 216.329 151.5C216.789 152.02 217.389 152.28 218.129 152.28ZM227.604 150.6V139.2C227.604 138.74 227.464 138.41 227.184 138.21C226.904 138.01 226.444 137.91 225.804 137.91V136.8H230.844L237.294 147.18V139.2C237.294 138.72 237.164 138.39 236.904 138.21C236.644 138.01 236.174 137.91 235.494 137.91V136.8H240.414V137.91C239.734 137.91 239.264 138.01 239.004 138.21C238.744 138.39 238.614 138.72 238.614 139.2V153H237.264L228.924 139.5V150.6C228.924 151.08 229.054 151.42 229.314 151.62C229.574 151.8 230.044 151.89 230.724 151.89V153H225.804V151.89C226.484 151.89 226.954 151.8 227.214 151.62C227.474 151.42 227.604 151.08 227.604 150.6ZM241.741 151.89C242.381 151.89 242.841 151.79 243.121 151.59C243.401 151.39 243.541 151.06 243.541 150.6V139.2C243.541 138.74 243.401 138.41 243.121 138.21C242.841 138.01 242.381 137.91 241.741 137.91V136.8H250.621C251.141 136.8 251.511 136.76 251.731 136.68C251.951 136.58 252.071 136.43 252.091 136.23H253.081L254.311 141.09L253.321 141.36C252.961 140.4 252.611 139.68 252.271 139.2C251.951 138.7 251.531 138.37 251.011 138.21C250.511 138.05 249.821 137.97 248.941 137.97H246.841V144.99H248.971C249.751 144.99 250.141 144.47 250.141 143.43H251.101V147.99H250.141C250.141 146.77 249.751 146.16 248.971 146.16H246.841V150.6C246.841 151.06 246.981 151.39 247.261 151.59C247.541 151.79 248.001 151.89 248.641 151.89V153H241.741V151.89ZM255.452 151.89C256.092 151.89 256.552 151.79 256.832 151.59C257.112 151.39 257.252 151.06 257.252 150.6V139.2C257.252 138.74 257.112 138.41 256.832 138.21C256.552 138.01 256.092 137.91 255.452 137.91V136.8H262.352V137.91C261.712 137.91 261.252 138.01 260.972 138.21C260.692 138.41 260.552 138.74 260.552 139.2V150.6C260.552 151.06 260.692 151.39 260.972 151.59C261.252 151.79 261.712 151.89 262.352 151.89V153H255.452V151.89ZM263.802 151.89C264.442 151.89 264.902 151.79 265.182 151.59C265.462 151.39 265.602 151.06 265.602 150.6V139.2C265.602 138.74 265.462 138.41 265.182 138.21C264.902 138.01 264.442 137.91 263.802 137.91V136.8H270.882C272.722 136.8 274.072 137.22 274.932 138.06C275.792 138.9 276.222 140.21 276.222 141.99C276.222 142.85 276.002 143.6 275.562 144.24C275.122 144.86 274.422 145.41 273.462 145.89C275.142 146.59 275.982 147.84 275.982 149.64C275.982 150.26 276.102 150.79 276.342 151.23C276.602 151.67 276.912 151.89 277.272 151.89H277.452V153H277.182C275.722 153 274.642 152.73 273.942 152.19C273.262 151.65 272.922 150.8 272.922 149.64C272.922 148.78 272.702 148.04 272.262 147.42C271.822 146.78 271.312 146.46 270.732 146.46H270.102V145.35H270.882C271.542 145.35 272.072 145.08 272.472 144.54C272.872 144 273.072 143.29 273.072 142.41V140.88C273.072 140 272.872 139.3 272.472 138.78C272.072 138.24 271.542 137.97 270.882 137.97H268.902V150.6C268.902 151.06 269.042 151.39 269.322 151.59C269.602 151.79 270.062 151.89 270.702 151.89V153H263.802V151.89ZM280.133 150.6V139.2C280.133 138.74 279.993 138.41 279.713 138.21C279.433 138.01 278.973 137.91 278.333 137.91V136.8H283.643L287.273 147.78L290.363 136.8H295.823V137.82C295.143 137.82 294.673 137.92 294.413 138.12C294.153 138.3 294.023 138.63 294.023 139.11V150.6C294.023 151.08 294.153 151.42 294.413 151.62C294.673 151.8 295.143 151.89 295.823 151.89V153H289.163V151.89C289.843 151.89 290.313 151.8 290.573 151.62C290.833 151.42 290.963 151.08 290.963 150.6V139.29L287.183 153H285.953L281.453 139.26V150.6C281.453 151.08 281.583 151.42 281.843 151.62C282.103 151.8 282.573 151.89 283.253 151.89V153H278.333V151.89C279.013 151.89 279.483 151.8 279.743 151.62C280.003 151.42 280.133 151.08 280.133 150.6ZM299.509 150.57C299.369 150.97 299.459 151.29 299.779 151.53C300.119 151.77 300.629 151.89 301.309 151.89V153H296.299V151.89C296.839 151.89 297.249 151.79 297.529 151.59C297.809 151.39 298.019 151.05 298.159 150.57L302.659 136.68H304.099L308.779 150.63C308.959 151.15 309.159 151.49 309.379 151.65C309.599 151.81 310.019 151.89 310.639 151.89V153H303.739V151.89C305.219 151.89 305.829 151.48 305.569 150.66L304.939 148.65H300.139L299.509 150.57ZM300.529 147.51H304.579L302.599 141.21L300.529 147.51ZM312.916 150.6V139.2C312.916 138.74 312.776 138.41 312.496 138.21C312.216 138.01 311.756 137.91 311.116 137.91V136.8H316.156L322.606 147.18V139.2C322.606 138.72 322.476 138.39 322.216 138.21C321.956 138.01 321.486 137.91 320.806 137.91V136.8H325.726V137.91C325.046 137.91 324.576 138.01 324.316 138.21C324.056 138.39 323.926 138.72 323.926 139.2V153H322.576L314.236 139.5V150.6C314.236 151.08 314.366 151.42 314.626 151.62C314.886 151.8 315.356 151.89 316.036 151.89V153H311.116V151.89C311.796 151.89 312.266 151.8 312.526 151.62C312.786 151.42 312.916 151.08 312.916 150.6ZM327.054 151.89C327.694 151.89 328.154 151.79 328.434 151.59C328.714 151.39 328.854 151.06 328.854 150.6V139.2C328.854 138.74 328.714 138.41 328.434 138.21C328.154 138.01 327.694 137.91 327.054 137.91V136.8H334.194C336.094 136.8 337.494 137.32 338.394 138.36C339.294 139.4 339.744 141.02 339.744 143.22V146.58C339.744 150.86 337.894 153 334.194 153H327.054V151.89ZM334.194 137.97H332.214V151.83H334.194C334.874 151.83 335.414 151.57 335.814 151.05C336.234 150.51 336.444 149.8 336.444 148.92V140.88C336.444 140 336.234 139.3 335.814 138.78C335.414 138.24 334.874 137.97 334.194 137.97ZM347.709 136.35C349.549 136.35 350.969 136.91 351.969 138.03C352.969 139.15 353.469 140.73 353.469 142.77V147.03C353.469 151.31 351.549 153.45 347.709 153.45C345.829 153.45 344.389 152.9 343.389 151.8C342.389 150.7 341.889 149.11 341.889 147.03V142.77C341.889 140.65 342.379 139.05 343.359 137.97C344.359 136.89 345.809 136.35 347.709 136.35ZM347.709 152.28C348.429 152.28 349.019 152.02 349.479 151.5C349.939 150.96 350.169 150.27 350.169 149.43V140.4C350.169 139.56 349.939 138.87 349.479 138.33C349.019 137.79 348.429 137.52 347.709 137.52C347.009 137.52 346.419 137.8 345.939 138.36C345.479 138.9 345.249 139.58 345.249 140.4V149.43C345.249 150.29 345.469 150.98 345.909 151.5C346.369 152.02 346.969 152.28 347.709 152.28ZM237.83 187.89C238.47 187.89 238.93 187.79 239.21 187.59C239.49 187.39 239.63 187.06 239.63 186.6V175.2C239.63 174.74 239.49 174.41 239.21 174.21C238.93 174.01 238.47 173.91 237.83 173.91V172.8H244.91C246.73 172.8 248.07 173.23 248.93 174.09C249.81 174.93 250.25 176.23 250.25 177.99C250.25 179.71 249.81 180.99 248.93 181.83C248.07 182.65 246.73 183.06 244.91 183.06H244.13V181.95H244.91C245.57 181.95 246.1 181.68 246.5 181.14C246.9 180.6 247.1 179.89 247.1 179.01V176.88C247.1 176 246.9 175.3 246.5 174.78C246.1 174.24 245.57 173.97 244.91 173.97H242.93V186.6C242.93 187.06 243.07 187.39 243.35 187.59C243.63 187.79 244.09 187.89 244.73 187.89V189H237.83V187.89ZM251.512 187.89C252.152 187.89 252.612 187.79 252.892 187.59C253.172 187.39 253.312 187.06 253.312 186.6V175.2C253.312 174.74 253.172 174.41 252.892 174.21C252.612 174.01 252.152 173.91 251.512 173.91V172.8H260.392C260.912 172.8 261.282 172.76 261.502 172.68C261.722 172.58 261.842 172.43 261.862 172.23H262.852L264.082 177.09L263.092 177.36C262.732 176.4 262.382 175.68 262.042 175.2C261.722 174.7 261.302 174.37 260.782 174.21C260.282 174.05 259.592 173.97 258.712 173.97H256.582V180.42H258.742C259.522 180.42 259.912 179.9 259.912 178.86H260.872V183.42H259.912C259.912 182.2 259.522 181.59 258.742 181.59H256.582V187.83H259.702C260.602 187.83 261.292 187.73 261.772 187.53C262.272 187.33 262.632 186.95 262.852 186.39C263.092 185.81 263.272 184.97 263.392 183.87H264.382V189.63H263.362C263.282 189.39 263.092 189.22 262.792 189.12C262.492 189.04 261.992 189 261.292 189H251.512V187.89ZM265.574 187.89C266.214 187.89 266.674 187.79 266.954 187.59C267.234 187.39 267.374 187.06 267.374 186.6V175.2C267.374 174.74 267.234 174.41 266.954 174.21C266.674 174.01 266.214 173.91 265.574 173.91V172.8H272.714C274.614 172.8 276.014 173.32 276.914 174.36C277.814 175.4 278.264 177.02 278.264 179.22V182.58C278.264 186.86 276.414 189 272.714 189H265.574V187.89ZM272.714 173.97H270.734V187.83H272.714C273.394 187.83 273.934 187.57 274.334 187.05C274.754 186.51 274.964 185.8 274.964 184.92V176.88C274.964 176 274.754 175.3 274.334 174.78C273.934 174.24 273.394 173.97 272.714 173.97ZM279.93 187.89C280.57 187.89 281.03 187.79 281.31 187.59C281.59 187.39 281.73 187.06 281.73 186.6V175.2C281.73 174.74 281.59 174.41 281.31 174.21C281.03 174.01 280.57 173.91 279.93 173.91V172.8H286.83V173.91C286.19 173.91 285.73 174.01 285.45 174.21C285.17 174.41 285.03 174.74 285.03 175.2V186.6C285.03 187.06 285.17 187.39 285.45 187.59C285.73 187.79 286.19 187.89 286.83 187.89V189H279.93V187.89ZM288.28 187.89C288.92 187.89 289.38 187.79 289.66 187.59C289.94 187.39 290.08 187.06 290.08 186.6V175.2C290.08 174.74 289.94 174.41 289.66 174.21C289.38 174.01 288.92 173.91 288.28 173.91V172.8H295.42C297.32 172.8 298.72 173.32 299.62 174.36C300.52 175.4 300.97 177.02 300.97 179.22V182.58C300.97 186.86 299.12 189 295.42 189H288.28V187.89ZM295.42 173.97H293.44V187.83H295.42C296.1 187.83 296.64 187.57 297.04 187.05C297.46 186.51 297.67 185.8 297.67 184.92V176.88C297.67 176 297.46 175.3 297.04 174.78C296.64 174.24 296.1 173.97 295.42 173.97ZM308.935 172.35C310.775 172.35 312.195 172.91 313.195 174.03C314.195 175.15 314.695 176.73 314.695 178.77V183.03C314.695 187.31 312.775 189.45 308.935 189.45C307.055 189.45 305.615 188.9 304.615 187.8C303.615 186.7 303.115 185.11 303.115 183.03V178.77C303.115 176.65 303.605 175.05 304.585 173.97C305.585 172.89 307.035 172.35 308.935 172.35ZM308.935 188.28C309.655 188.28 310.245 188.02 310.705 187.5C311.165 186.96 311.395 186.27 311.395 185.43V176.4C311.395 175.56 311.165 174.87 310.705 174.33C310.245 173.79 309.655 173.52 308.935 173.52C308.235 173.52 307.645 173.8 307.165 174.36C306.705 174.9 306.475 175.58 306.475 176.4V185.43C306.475 186.29 306.695 186.98 307.135 187.5C307.595 188.02 308.195 188.28 308.935 188.28Z" fill="black"/>
<path d="M493.186 159.89C493.826 159.89 494.286 159.79 494.566 159.59C494.846 159.39 494.986 159.06 494.986 158.6V140.9C494.986 140.44 494.846 140.11 494.566 139.91C494.286 139.71 493.826 139.61 493.186 139.61V138.5H502.036C502.496 138.5 502.826 138.42 503.026 138.26C503.226 138.08 503.356 137.78 503.416 137.36H504.436L505.756 142.79L504.736 143.06C504.396 142.1 504.056 141.38 503.716 140.9C503.396 140.42 502.976 140.1 502.456 139.94C501.956 139.78 501.256 139.7 500.356 139.7H498.346V148.55H499.126C500.506 148.55 501.196 147.83 501.196 146.39H502.306V151.91H501.196C501.196 151.15 501.026 150.6 500.686 150.26C500.366 149.92 499.846 149.75 499.126 149.75H498.346V159.8H501.586C502.486 159.8 503.176 159.7 503.656 159.5C504.156 159.3 504.526 158.92 504.766 158.36C505.006 157.8 505.186 156.97 505.306 155.87H506.356V161.93H505.246C505.166 161.59 504.966 161.35 504.646 161.21C504.346 161.07 503.856 161 503.176 161H493.186V159.89ZM509.308 158.6V147.2C509.308 146.74 509.168 146.41 508.888 146.21C508.608 146.01 508.148 145.91 507.508 145.91V144.8H512.818L516.448 155.78L519.538 144.8H524.998V145.82C524.318 145.82 523.848 145.92 523.588 146.12C523.328 146.3 523.198 146.63 523.198 147.11V158.6C523.198 159.08 523.328 159.42 523.588 159.62C523.848 159.8 524.318 159.89 524.998 159.89V161H518.338V159.89C519.018 159.89 519.488 159.8 519.748 159.62C520.008 159.42 520.138 159.08 520.138 158.6V147.29L516.358 161H515.128L510.628 147.26V158.6C510.628 159.08 510.758 159.42 511.018 159.62C511.278 159.8 511.748 159.89 512.428 159.89V161H507.508V159.89C508.188 159.89 508.658 159.8 508.918 159.62C509.178 159.42 509.308 159.08 509.308 158.6ZM453.997 195.89C454.637 195.89 455.097 195.79 455.377 195.59C455.657 195.39 455.797 195.06 455.797 194.6V183.2C455.797 182.74 455.657 182.41 455.377 182.21C455.097 182.01 454.637 181.91 453.997 181.91V180.8H461.077C462.897 180.8 464.237 181.23 465.097 182.09C465.977 182.93 466.417 184.23 466.417 185.99C466.417 187.71 465.977 188.99 465.097 189.83C464.237 190.65 462.897 191.06 461.077 191.06H460.297V189.95H461.077C461.737 189.95 462.267 189.68 462.667 189.14C463.067 188.6 463.267 187.89 463.267 187.01V184.88C463.267 184 463.067 183.3 462.667 182.78C462.267 182.24 461.737 181.97 461.077 181.97H459.097V194.6C459.097 195.06 459.237 195.39 459.517 195.59C459.797 195.79 460.257 195.89 460.897 195.89V197H453.997V195.89ZM467.679 195.89C468.319 195.89 468.779 195.79 469.059 195.59C469.339 195.39 469.479 195.06 469.479 194.6V183.2C469.479 182.74 469.339 182.41 469.059 182.21C468.779 182.01 468.319 181.91 467.679 181.91V180.8H474.759C476.599 180.8 477.949 181.22 478.809 182.06C479.669 182.9 480.099 184.21 480.099 185.99C480.099 186.85 479.879 187.6 479.439 188.24C478.999 188.86 478.299 189.41 477.339 189.89C479.019 190.59 479.859 191.84 479.859 193.64C479.859 194.26 479.979 194.79 480.219 195.23C480.479 195.67 480.789 195.89 481.149 195.89H481.329V197H481.059C479.599 197 478.519 196.73 477.819 196.19C477.139 195.65 476.799 194.8 476.799 193.64C476.799 192.78 476.579 192.04 476.139 191.42C475.699 190.78 475.189 190.46 474.609 190.46H473.979V189.35H474.759C475.419 189.35 475.949 189.08 476.349 188.54C476.749 188 476.949 187.29 476.949 186.41V184.88C476.949 184 476.749 183.3 476.349 182.78C475.949 182.24 475.419 181.97 474.759 181.97H472.779V194.6C472.779 195.06 472.919 195.39 473.199 195.59C473.479 195.79 473.939 195.89 474.579 195.89V197H467.679V195.89ZM488.51 180.35C490.35 180.35 491.77 180.91 492.77 182.03C493.77 183.15 494.27 184.73 494.27 186.77V191.03C494.27 195.31 492.35 197.45 488.51 197.45C486.63 197.45 485.19 196.9 484.19 195.8C483.19 194.7 482.69 193.11 482.69 191.03V186.77C482.69 184.65 483.18 183.05 484.16 181.97C485.16 180.89 486.61 180.35 488.51 180.35ZM488.51 196.28C489.23 196.28 489.82 196.02 490.28 195.5C490.74 194.96 490.97 194.27 490.97 193.43V184.4C490.97 183.56 490.74 182.87 490.28 182.33C489.82 181.79 489.23 181.52 488.51 181.52C487.81 181.52 487.22 181.8 486.74 182.36C486.28 182.9 486.05 183.58 486.05 184.4V193.43C486.05 194.29 486.27 194.98 486.71 195.5C487.17 196.02 487.77 196.28 488.51 196.28ZM496.185 195.89C496.825 195.89 497.285 195.79 497.565 195.59C497.845 195.39 497.985 195.06 497.985 194.6V183.2C497.985 182.74 497.845 182.41 497.565 182.21C497.285 182.01 496.825 181.91 496.185 181.91V180.8H503.325C505.225 180.8 506.625 181.32 507.525 182.36C508.425 183.4 508.875 185.02 508.875 187.22V190.58C508.875 194.86 507.025 197 503.325 197H496.185V195.89ZM503.325 181.97H501.345V195.83H503.325C504.005 195.83 504.545 195.57 504.945 195.05C505.365 194.51 505.575 193.8 505.575 192.92V184.88C505.575 184 505.365 183.3 504.945 182.78C504.545 182.24 504.005 181.97 503.325 181.97ZM522.42 190.88C522.42 195.16 520.75 197.3 517.41 197.3C515.69 197.3 514.33 196.73 513.33 195.59C512.35 194.45 511.86 192.88 511.86 190.88V183.2C511.86 182.74 511.72 182.41 511.44 182.21C511.16 182.01 510.7 181.91 510.06 181.91V180.8H516.96V181.91C516.32 181.91 515.86 182.01 515.58 182.21C515.3 182.41 515.16 182.74 515.16 183.2V192.92C515.16 193.84 515.42 194.59 515.94 195.17C516.48 195.75 517.18 196.04 518.04 196.04C518.96 196.04 519.7 195.6 520.26 194.72C520.84 193.84 521.13 192.71 521.13 191.33V183.2C521.13 182.72 521 182.39 520.74 182.21C520.48 182.01 520.01 181.91 519.33 181.91V180.8H524.22V181.91C523.54 181.91 523.07 182.01 522.81 182.21C522.55 182.39 522.42 182.72 522.42 183.2V190.88ZM531.609 180.5C532.329 180.5 532.849 180.53 533.169 180.59C533.489 180.65 533.719 180.52 533.859 180.2H534.879L536.109 185.03L535.089 185.3C534.729 184.36 534.389 183.63 534.069 183.11C533.749 182.59 533.389 182.23 532.989 182.03C532.609 181.81 532.139 181.7 531.579 181.7C530.839 181.7 530.219 182.01 529.719 182.63C529.219 183.23 528.969 183.98 528.969 184.88V193.07C528.969 193.99 529.229 194.74 529.749 195.32C530.289 195.9 530.989 196.19 531.849 196.19C532.769 196.19 533.509 195.75 534.069 194.87C534.649 193.99 534.939 192.86 534.939 191.48V191H536.169V191.03C536.169 193.21 535.759 194.83 534.939 195.89C534.139 196.93 532.899 197.45 531.219 197.45C529.499 197.45 528.139 196.88 527.139 195.74C526.159 194.6 525.669 193.03 525.669 191.03V186.92C525.669 182.64 527.649 180.5 531.609 180.5ZM532.689 200.3C532.689 199.92 532.539 199.61 532.239 199.37C531.939 199.15 531.539 199.04 531.039 199.04H529.929V197.99L530.529 197.3L531.879 197.33L531.309 197.96C532.189 197.96 532.879 198.16 533.379 198.56C533.899 198.96 534.159 199.54 534.159 200.3C534.159 201.02 533.939 201.6 533.499 202.04C533.059 202.5 532.459 202.73 531.699 202.73H530.529V201.59H531.039C532.139 201.59 532.689 201.16 532.689 200.3ZM539.861 194.57C539.721 194.97 539.811 195.29 540.131 195.53C540.471 195.77 540.981 195.89 541.661 195.89V197H536.651V195.89C537.191 195.89 537.601 195.79 537.881 195.59C538.161 195.39 538.371 195.05 538.511 194.57L543.011 180.68H544.451L549.131 194.63C549.311 195.15 549.511 195.49 549.731 195.65C549.951 195.81 550.371 195.89 550.991 195.89V197H544.091V195.89C545.571 195.89 546.181 195.48 545.921 194.66L545.291 192.65H540.491L539.861 194.57ZM540.881 191.51H544.931L542.951 185.21L540.881 191.51ZM540.581 178.13C540.581 177.77 540.761 177.46 541.121 177.2C541.501 176.92 541.941 176.78 542.441 176.78C542.901 176.78 543.321 176.86 543.701 177.02C544.081 177.16 544.431 177.31 544.751 177.47C545.071 177.63 545.371 177.71 545.651 177.71C546.131 177.71 546.541 177.5 546.881 177.08L547.631 177.5C547.151 178.62 546.441 179.18 545.501 179.18C545.041 179.18 544.661 179.12 544.361 179C544.061 178.86 543.781 178.73 543.521 178.61C543.261 178.47 542.961 178.4 542.621 178.4C542.361 178.4 542.131 178.48 541.931 178.64C541.751 178.8 541.631 179.01 541.571 179.27C540.911 179.07 540.581 178.69 540.581 178.13ZM557.768 180.35C559.608 180.35 561.028 180.91 562.028 182.03C563.028 183.15 563.528 184.73 563.528 186.77V191.03C563.528 195.31 561.608 197.45 557.768 197.45C555.888 197.45 554.448 196.9 553.448 195.8C552.448 194.7 551.948 193.11 551.948 191.03V186.77C551.948 184.65 552.438 183.05 553.418 181.97C554.418 180.89 555.868 180.35 557.768 180.35ZM557.768 196.28C558.488 196.28 559.078 196.02 559.538 195.5C559.998 194.96 560.228 194.27 560.228 193.43V184.4C560.228 183.56 559.998 182.87 559.538 182.33C559.078 181.79 558.488 181.52 557.768 181.52C557.068 181.52 556.478 181.8 555.998 182.36C555.538 182.9 555.308 183.58 555.308 184.4V193.43C555.308 194.29 555.528 194.98 555.968 195.5C556.428 196.02 557.028 196.28 557.768 196.28Z" fill="black"/>
<path d="M687.942 139.4C687.262 139.4 686.662 139.66 686.142 140.18C685.642 140.68 685.392 141.28 685.392 141.98C685.392 142.54 685.522 143.1 685.782 143.66C686.062 144.2 686.512 144.82 687.132 145.52L690.162 149.06C691.022 150.06 691.682 150.93 692.142 151.67C692.622 152.39 692.952 153.09 693.132 153.77C693.332 154.43 693.432 155.17 693.432 155.99C693.432 156.97 693.182 157.86 692.682 158.66C692.182 159.46 691.512 160.1 690.672 160.58C689.832 161.06 688.902 161.3 687.882 161.3C687.142 161.3 686.542 161.23 686.082 161.09C685.622 160.95 685.252 160.81 684.972 160.67C684.712 160.53 684.482 160.46 684.282 160.46C684.082 160.46 683.892 160.52 683.712 160.64C683.532 160.74 683.422 160.86 683.382 161H682.332V154.64H683.352C683.632 156.24 684.132 157.5 684.852 158.42C685.572 159.32 686.412 159.77 687.372 159.77C688.212 159.77 688.872 159.49 689.352 158.93C689.852 158.37 690.102 157.61 690.102 156.65C690.102 155.87 689.912 155.09 689.532 154.31C689.152 153.51 688.542 152.63 687.702 151.67L685.182 148.76C684.142 147.54 683.412 146.51 682.992 145.67C682.572 144.81 682.362 143.9 682.362 142.94C682.362 142.1 682.612 141.32 683.112 140.6C683.612 139.88 684.262 139.3 685.062 138.86C685.882 138.42 686.752 138.2 687.672 138.2C688.432 138.2 688.972 138.14 689.292 138.02C689.612 137.9 689.852 137.68 690.012 137.36H691.032L692.352 142.79L691.332 143.06C690.952 142.06 690.602 141.3 690.282 140.78C689.962 140.26 689.622 139.9 689.262 139.7C688.922 139.5 688.482 139.4 687.942 139.4ZM697.121 158.57C696.981 158.97 697.071 159.29 697.391 159.53C697.731 159.77 698.241 159.89 698.921 159.89V161H693.911V159.89C694.451 159.89 694.861 159.79 695.141 159.59C695.421 159.39 695.631 159.05 695.771 158.57L700.271 144.68H701.711L706.391 158.63C706.571 159.15 706.771 159.49 706.991 159.65C707.211 159.81 707.631 159.89 708.251 159.89V161H701.351V159.89C702.831 159.89 703.441 159.48 703.181 158.66L702.551 156.65H697.751L697.121 158.57ZM698.141 155.51H702.191L700.211 149.21L698.141 155.51ZM708.729 159.89C709.369 159.89 709.829 159.79 710.109 159.59C710.389 159.39 710.529 159.06 710.529 158.6V147.2C710.529 146.74 710.389 146.41 710.109 146.21C709.829 146.01 709.369 145.91 708.729 145.91V144.8H715.629V145.91C714.989 145.91 714.529 146.01 714.249 146.21C713.969 146.41 713.829 146.74 713.829 147.2V158.6C713.829 159.06 713.969 159.39 714.249 159.59C714.529 159.79 714.989 159.89 715.629 159.89V161H708.729V159.89ZM718.878 158.6V147.2C718.878 146.74 718.738 146.41 718.458 146.21C718.178 146.01 717.718 145.91 717.078 145.91V144.8H722.118L728.568 155.18V147.2C728.568 146.72 728.438 146.39 728.178 146.21C727.918 146.01 727.448 145.91 726.768 145.91V144.8H731.688V145.91C731.008 145.91 730.538 146.01 730.278 146.21C730.018 146.39 729.888 146.72 729.888 147.2V161H728.538L720.198 147.5V158.6C720.198 159.08 720.328 159.42 720.588 159.62C720.848 159.8 721.318 159.89 721.998 159.89V161H717.078V159.89C717.758 159.89 718.228 159.8 718.488 159.62C718.748 159.42 718.878 159.08 718.878 158.6ZM733.016 159.89C733.656 159.89 734.116 159.79 734.396 159.59C734.676 159.39 734.816 159.06 734.816 158.6V147.2C734.816 146.74 734.676 146.41 734.396 146.21C734.116 146.01 733.656 145.91 733.016 145.91V144.8H740.156C742.056 144.8 743.456 145.32 744.356 146.36C745.256 147.4 745.706 149.02 745.706 151.22V154.58C745.706 158.86 743.856 161 740.156 161H733.016V159.89ZM740.156 145.97H738.176V159.83H740.156C740.836 159.83 741.376 159.57 741.776 159.05C742.196 158.51 742.406 157.8 742.406 156.92V148.88C742.406 148 742.196 147.3 741.776 146.78C741.376 146.24 740.836 145.97 740.156 145.97ZM753.671 144.35C755.511 144.35 756.931 144.91 757.931 146.03C758.931 147.15 759.431 148.73 759.431 150.77V155.03C759.431 159.31 757.511 161.45 753.671 161.45C751.791 161.45 750.351 160.9 749.351 159.8C748.351 158.7 747.851 157.11 747.851 155.03V150.77C747.851 148.65 748.341 147.05 749.321 145.97C750.321 144.89 751.771 144.35 753.671 144.35ZM753.671 160.28C754.391 160.28 754.981 160.02 755.441 159.5C755.901 158.96 756.131 158.27 756.131 157.43V148.4C756.131 147.56 755.901 146.87 755.441 146.33C754.981 145.79 754.391 145.52 753.671 145.52C752.971 145.52 752.381 145.8 751.901 146.36C751.441 146.9 751.211 147.58 751.211 148.4V157.43C751.211 158.29 751.431 158.98 751.871 159.5C752.331 160.02 752.931 160.28 753.671 160.28ZM767.117 159.89C767.757 159.89 768.217 159.79 768.497 159.59C768.777 159.39 768.917 159.06 768.917 158.6V147.2C768.917 146.74 768.777 146.41 768.497 146.21C768.217 146.01 767.757 145.91 767.117 145.91V144.8H774.197C776.017 144.8 777.357 145.23 778.217 146.09C779.097 146.93 779.537 148.23 779.537 149.99C779.537 151.71 779.097 152.99 778.217 153.83C777.357 154.65 776.017 155.06 774.197 155.06H773.417V153.95H774.197C774.857 153.95 775.387 153.68 775.787 153.14C776.187 152.6 776.387 151.89 776.387 151.01V148.88C776.387 148 776.187 147.3 775.787 146.78C775.387 146.24 774.857 145.97 774.197 145.97H772.217V158.6C772.217 159.06 772.357 159.39 772.637 159.59C772.917 159.79 773.377 159.89 774.017 159.89V161H767.117V159.89ZM782.082 158.57C781.942 158.97 782.032 159.29 782.352 159.53C782.692 159.77 783.202 159.89 783.882 159.89V161H778.872V159.89C779.412 159.89 779.822 159.79 780.102 159.59C780.382 159.39 780.592 159.05 780.732 158.57L785.232 144.68H786.672L791.352 158.63C791.532 159.15 791.732 159.49 791.952 159.65C792.172 159.81 792.592 159.89 793.212 159.89V161H786.312V159.89C787.792 159.89 788.402 159.48 788.142 158.66L787.512 156.65H782.712L782.082 158.57ZM783.102 155.51H787.152L785.172 149.21L783.102 155.51ZM793.69 159.89C794.33 159.89 794.79 159.79 795.07 159.59C795.35 159.39 795.49 159.06 795.49 158.6V147.2C795.49 146.74 795.35 146.41 795.07 146.21C794.79 146.01 794.33 145.91 793.69 145.91V144.8H800.77C802.61 144.8 803.96 145.22 804.82 146.06C805.68 146.9 806.11 148.21 806.11 149.99C806.11 150.85 805.89 151.6 805.45 152.24C805.01 152.86 804.31 153.41 803.35 153.89C805.03 154.59 805.87 155.84 805.87 157.64C805.87 158.26 805.99 158.79 806.23 159.23C806.49 159.67 806.8 159.89 807.16 159.89H807.34V161H807.07C805.61 161 804.53 160.73 803.83 160.19C803.15 159.65 802.81 158.8 802.81 157.64C802.81 156.78 802.59 156.04 802.15 155.42C801.71 154.78 801.2 154.46 800.62 154.46H799.99V153.35H800.77C801.43 153.35 801.96 153.08 802.36 152.54C802.76 152 802.96 151.29 802.96 150.41V148.88C802.96 148 802.76 147.3 802.36 146.78C801.96 146.24 801.43 145.97 800.77 145.97H798.79V158.6C798.79 159.06 798.93 159.39 799.21 159.59C799.49 159.79 799.95 159.89 800.59 159.89V161H793.69V159.89ZM810.471 158.57C810.331 158.97 810.421 159.29 810.741 159.53C811.081 159.77 811.591 159.89 812.271 159.89V161H807.261V159.89C807.801 159.89 808.211 159.79 808.491 159.59C808.771 159.39 808.981 159.05 809.121 158.57L813.621 144.68H815.061L819.741 158.63C819.921 159.15 820.121 159.49 820.341 159.65C820.561 159.81 820.981 159.89 821.601 159.89V161H814.701V159.89C816.181 159.89 816.791 159.48 816.531 158.66L815.901 156.65H811.101L810.471 158.57ZM811.491 155.51H815.541L813.561 149.21L811.491 155.51ZM702.664 195.89C703.304 195.89 703.764 195.79 704.044 195.59C704.324 195.39 704.464 195.06 704.464 194.6V183.2C704.464 182.74 704.324 182.41 704.044 182.21C703.764 182.01 703.304 181.91 702.664 181.91V180.8H711.544C712.064 180.8 712.434 180.76 712.654 180.68C712.874 180.58 712.994 180.43 713.014 180.23H714.004L715.234 185.09L714.244 185.36C713.884 184.4 713.534 183.68 713.194 183.2C712.874 182.7 712.454 182.37 711.934 182.21C711.434 182.05 710.744 181.97 709.864 181.97H707.734V188.42H709.894C710.674 188.42 711.064 187.9 711.064 186.86H712.024V191.42H711.064C711.064 190.2 710.674 189.59 709.894 189.59H707.734V195.83H710.854C711.754 195.83 712.444 195.73 712.924 195.53C713.424 195.33 713.784 194.95 714.004 194.39C714.244 193.81 714.424 192.97 714.544 191.87H715.534V197.63H714.514C714.434 197.39 714.244 197.22 713.944 197.12C713.644 197.04 713.144 197 712.444 197H702.664V195.89ZM718.527 194.6V183.2C718.527 182.74 718.387 182.41 718.107 182.21C717.827 182.01 717.367 181.91 716.727 181.91V180.8H721.767L728.217 191.18V183.2C728.217 182.72 728.087 182.39 727.827 182.21C727.567 182.01 727.097 181.91 726.417 181.91V180.8H731.337V181.91C730.657 181.91 730.187 182.01 729.927 182.21C729.667 182.39 729.537 182.72 729.537 183.2V197H728.187L719.847 183.5V194.6C719.847 195.08 719.977 195.42 720.237 195.62C720.497 195.8 720.967 195.89 721.647 195.89V197H716.727V195.89C717.407 195.89 717.877 195.8 718.137 195.62C718.397 195.42 718.527 195.08 718.527 194.6ZM735.064 195.89C735.704 195.89 736.164 195.79 736.444 195.59C736.724 195.39 736.864 195.06 736.864 194.6V181.97H736.354C735.714 181.97 735.204 182.07 734.824 182.27C734.444 182.47 734.114 182.86 733.834 183.44C733.574 184.02 733.284 184.89 732.964 186.05L731.944 185.78L732.964 180.02H733.894C733.954 180.54 734.414 180.8 735.274 180.8H741.814C742.674 180.8 743.134 180.54 743.194 180.02H744.124L745.144 185.78L744.124 186.05C743.804 184.89 743.504 184.02 743.224 183.44C742.964 182.86 742.644 182.47 742.264 182.27C741.884 182.07 741.374 181.97 740.734 181.97H740.164V194.6C740.164 195.06 740.304 195.39 740.584 195.59C740.864 195.79 741.324 195.89 741.964 195.89V197H735.064V195.89ZM745.877 195.89C746.517 195.89 746.977 195.79 747.257 195.59C747.537 195.39 747.677 195.06 747.677 194.6V183.2C747.677 182.74 747.537 182.41 747.257 182.21C746.977 182.01 746.517 181.91 745.877 181.91V180.8H752.957C754.797 180.8 756.147 181.22 757.007 182.06C757.867 182.9 758.297 184.21 758.297 185.99C758.297 186.85 758.077 187.6 757.637 188.24C757.197 188.86 756.497 189.41 755.537 189.89C757.217 190.59 758.057 191.84 758.057 193.64C758.057 194.26 758.177 194.79 758.417 195.23C758.677 195.67 758.987 195.89 759.347 195.89H759.527V197H759.257C757.797 197 756.717 196.73 756.017 196.19C755.337 195.65 754.997 194.8 754.997 193.64C754.997 192.78 754.777 192.04 754.337 191.42C753.897 190.78 753.387 190.46 752.807 190.46H752.177V189.35H752.957C753.617 189.35 754.147 189.08 754.547 188.54C754.947 188 755.147 187.29 755.147 186.41V184.88C755.147 184 754.947 183.3 754.547 182.78C754.147 182.24 753.617 181.97 752.957 181.97H750.977V194.6C750.977 195.06 751.117 195.39 751.397 195.59C751.677 195.79 752.137 195.89 752.777 195.89V197H745.877V195.89ZM760.408 195.89C761.048 195.89 761.508 195.79 761.788 195.59C762.068 195.39 762.208 195.06 762.208 194.6V183.2C762.208 182.74 762.068 182.41 761.788 182.21C761.508 182.01 761.048 181.91 760.408 181.91V180.8H769.288C769.808 180.8 770.178 180.76 770.398 180.68C770.618 180.58 770.738 180.43 770.758 180.23H771.748L772.978 185.09L771.988 185.36C771.628 184.4 771.278 183.68 770.938 183.2C770.618 182.7 770.198 182.37 769.678 182.21C769.178 182.05 768.488 181.97 767.608 181.97H765.478V188.42H767.638C768.418 188.42 768.808 187.9 768.808 186.86H769.768V191.42H768.808C768.808 190.2 768.418 189.59 767.638 189.59H765.478V195.83H768.598C769.498 195.83 770.188 195.73 770.668 195.53C771.168 195.33 771.528 194.95 771.748 194.39C771.988 193.81 772.168 192.97 772.288 191.87H773.278V197.63H772.258C772.178 197.39 771.988 197.22 771.688 197.12C771.388 197.04 770.888 197 770.188 197H760.408V195.89ZM781.221 180.5C781.941 180.5 782.461 180.53 782.781 180.59C783.101 180.65 783.331 180.52 783.471 180.2H784.491L785.721 185.03L784.701 185.3C784.341 184.36 784.001 183.63 783.681 183.11C783.361 182.59 783.001 182.23 782.601 182.03C782.221 181.81 781.751 181.7 781.191 181.7C780.391 181.7 779.701 182.01 779.121 182.63C778.541 183.25 778.251 184 778.251 184.88V193.22C778.251 194.08 778.451 194.78 778.851 195.32C779.271 195.86 779.821 196.13 780.501 196.13C781.201 196.13 781.751 195.87 782.151 195.35C782.571 194.81 782.781 194.1 782.781 193.22V190.91C782.781 189.85 782.071 189.32 780.651 189.32V188.33H786.591V189.32C785.991 189.32 785.691 189.67 785.691 190.37V197H785.001L784.161 195.89C783.241 196.83 782.011 197.3 780.471 197.3C776.791 197.3 774.951 195.16 774.951 190.88V186.92C774.951 184.92 775.511 183.35 776.631 182.21C777.751 181.07 779.281 180.5 781.221 180.5ZM790.168 194.57C790.028 194.97 790.118 195.29 790.438 195.53C790.778 195.77 791.288 195.89 791.968 195.89V197H786.958V195.89C787.498 195.89 787.908 195.79 788.188 195.59C788.468 195.39 788.678 195.05 788.818 194.57L793.318 180.68H794.758L799.438 194.63C799.618 195.15 799.818 195.49 800.038 195.65C800.258 195.81 800.678 195.89 801.298 195.89V197H794.398V195.89C795.878 195.89 796.488 195.48 796.228 194.66L795.598 192.65H790.798L790.168 194.57ZM791.188 191.51H795.238L793.258 185.21L791.188 191.51Z" fill="black"/>
<defs>
<radialGradient id="paint0_diamond_930:267" cx="0" cy="0" r="1" gradientUnits="userSpaceOnUse" gradientTransform="translate(233 82) scale(86)">
<stop offset="0.239583" stop-color="#F00909"/>
<stop offset="1"/>
</radialGradient>
</defs>
</svg>
