<svg width="634" height="80" viewBox="0 0 634 80" fill="none" xmlns="http://www.w3.org/2000/svg">
<path d="M10.5659 5.2C11.3259 5.2 11.8659 5.14 12.1859 5.02C12.5059 4.9 12.7459 4.68 12.9059 4.36H13.9259L15.2459 9.79L14.2259 10.06C13.8459 9.06 13.4959 8.3 13.1759 7.78C12.8559 7.26 12.5159 6.9 12.1559 6.7C11.8159 6.5 11.3759 6.4 10.8359 6.4C10.0359 6.4 9.35594 6.71 8.79594 7.33C8.25594 7.93 7.98594 8.68 7.98594 9.58V23.92C7.98594 24.78 8.23594 25.49 8.73594 26.05C9.25594 26.61 9.90594 26.89 10.6859 26.89C11.6259 26.89 12.3859 26.48 12.9659 25.66C13.5459 24.82 13.8359 23.71 13.8359 22.33V21.85H15.1259V21.88C15.1259 24.06 14.7159 25.68 13.8959 26.74C13.0959 27.78 11.8559 28.3 10.1759 28.3C8.43594 28.3 7.07594 27.73 6.09594 26.59C5.11594 25.45 4.62594 23.88 4.62594 21.88V11.62C4.62594 9.52 5.12594 7.93 6.12594 6.85C7.14594 5.75 8.62594 5.2 10.5659 5.2ZM23.1294 11.35C24.9694 11.35 26.3894 11.91 27.3894 13.03C28.3894 14.15 28.8894 15.73 28.8894 17.77V22.03C28.8894 26.31 26.9694 28.45 23.1294 28.45C21.2494 28.45 19.8094 27.9 18.8094 26.8C17.8094 25.7 17.3094 24.11 17.3094 22.03V17.77C17.3094 15.65 17.7994 14.05 18.7794 12.97C19.7794 11.89 21.2294 11.35 23.1294 11.35ZM23.1294 27.28C23.8494 27.28 24.4394 27.02 24.8994 26.5C25.3594 25.96 25.5894 25.27 25.5894 24.43V15.4C25.5894 14.56 25.3594 13.87 24.8994 13.33C24.4394 12.79 23.8494 12.52 23.1294 12.52C22.4294 12.52 21.8394 12.8 21.3594 13.36C20.8994 13.9 20.6694 14.58 20.6694 15.4V24.43C20.6694 25.29 20.8894 25.98 21.3294 26.5C21.7894 27.02 22.3894 27.28 23.1294 27.28ZM32.604 25.6V14.2C32.604 13.74 32.464 13.41 32.184 13.21C31.904 13.01 31.444 12.91 30.804 12.91V11.8H35.844L42.294 22.18V14.2C42.294 13.72 42.164 13.39 41.904 13.21C41.644 13.01 41.174 12.91 40.494 12.91V11.8H45.414V12.91C44.734 12.91 44.264 13.01 44.004 13.21C43.744 13.39 43.614 13.72 43.614 14.2V28H42.264L33.924 14.5V25.6C33.924 26.08 34.054 26.42 34.314 26.62C34.574 26.8 35.044 26.89 35.724 26.89V28H30.804V26.89C31.484 26.89 31.954 26.8 32.214 26.62C32.474 26.42 32.604 26.08 32.604 25.6ZM46.7415 26.89C47.3815 26.89 47.8415 26.79 48.1215 26.59C48.4015 26.39 48.5415 26.06 48.5415 25.6V14.2C48.5415 13.74 48.4015 13.41 48.1215 13.21C47.8415 13.01 47.3815 12.91 46.7415 12.91V11.8H55.6215C56.1415 11.8 56.5115 11.76 56.7315 11.68C56.9515 11.58 57.0715 11.43 57.0915 11.23H58.0815L59.3115 16.09L58.3215 16.36C57.9615 15.4 57.6115 14.68 57.2715 14.2C56.9515 13.7 56.5315 13.37 56.0115 13.21C55.5115 13.05 54.8215 12.97 53.9415 12.97H51.8415V19.99H53.9715C54.7515 19.99 55.1415 19.47 55.1415 18.43H56.1015V22.99H55.1415C55.1415 21.77 54.7515 21.16 53.9715 21.16H51.8415V25.6C51.8415 26.06 51.9815 26.39 52.2615 26.59C52.5415 26.79 53.0015 26.89 53.6415 26.89V28H46.7415V26.89ZM60.4524 26.89C61.0924 26.89 61.5524 26.79 61.8324 26.59C62.1124 26.39 62.2524 26.06 62.2524 25.6V14.2C62.2524 13.74 62.1124 13.41 61.8324 13.21C61.5524 13.01 61.0924 12.91 60.4524 12.91V11.8H67.3524V12.91C66.7124 12.91 66.2524 13.01 65.9724 13.21C65.6924 13.41 65.5524 13.74 65.5524 14.2V25.6C65.5524 26.06 65.6924 26.39 65.9724 26.59C66.2524 26.79 66.7124 26.89 67.3524 26.89V28H60.4524V26.89ZM68.802 26.89C69.442 26.89 69.902 26.79 70.182 26.59C70.462 26.39 70.602 26.06 70.602 25.6V14.2C70.602 13.74 70.462 13.41 70.182 13.21C69.902 13.01 69.442 12.91 68.802 12.91V11.8H75.882C77.722 11.8 79.072 12.22 79.932 13.06C80.792 13.9 81.222 15.21 81.222 16.99C81.222 17.85 81.002 18.6 80.562 19.24C80.122 19.86 79.422 20.41 78.462 20.89C80.142 21.59 80.982 22.84 80.982 24.64C80.982 25.26 81.102 25.79 81.342 26.23C81.602 26.67 81.912 26.89 82.272 26.89H82.452V28H82.182C80.722 28 79.642 27.73 78.942 27.19C78.262 26.65 77.922 25.8 77.922 24.64C77.922 23.78 77.702 23.04 77.262 22.42C76.822 21.78 76.312 21.46 75.732 21.46H75.102V20.35H75.882C76.542 20.35 77.072 20.08 77.472 19.54C77.872 19 78.072 18.29 78.072 17.41V15.88C78.072 15 77.872 14.3 77.472 13.78C77.072 13.24 76.542 12.97 75.882 12.97H73.902V25.6C73.902 26.06 74.042 26.39 74.322 26.59C74.602 26.79 75.062 26.89 75.702 26.89V28H68.802V26.89ZM85.1333 25.6V14.2C85.1333 13.74 84.9933 13.41 84.7133 13.21C84.4333 13.01 83.9733 12.91 83.3333 12.91V11.8H88.6433L92.2733 22.78L95.3633 11.8H100.823V12.82C100.143 12.82 99.6733 12.92 99.4133 13.12C99.1533 13.3 99.0233 13.63 99.0233 14.11V25.6C99.0233 26.08 99.1533 26.42 99.4133 26.62C99.6733 26.8 100.143 26.89 100.823 26.89V28H94.1633V26.89C94.8433 26.89 95.3133 26.8 95.5733 26.62C95.8333 26.42 95.9633 26.08 95.9633 25.6V14.29L92.1833 28H90.9533L86.4533 14.26V25.6C86.4533 26.08 86.5833 26.42 86.8433 26.62C87.1033 26.8 87.5733 26.89 88.2533 26.89V28H83.3333V26.89C84.0133 26.89 84.4833 26.8 84.7433 26.62C85.0033 26.42 85.1333 26.08 85.1333 25.6ZM104.509 25.57C104.369 25.97 104.459 26.29 104.779 26.53C105.119 26.77 105.629 26.89 106.309 26.89V28H101.299V26.89C101.839 26.89 102.249 26.79 102.529 26.59C102.809 26.39 103.019 26.05 103.159 25.57L107.659 11.68H109.099L113.779 25.63C113.959 26.15 114.159 26.49 114.379 26.65C114.599 26.81 115.019 26.89 115.639 26.89V28H108.739V26.89C110.219 26.89 110.829 26.48 110.569 25.66L109.939 23.65H105.139L104.509 25.57ZM105.529 22.51H109.579L107.599 16.21L105.529 22.51ZM117.916 25.6V14.2C117.916 13.74 117.776 13.41 117.496 13.21C117.216 13.01 116.756 12.91 116.116 12.91V11.8H121.156L127.606 22.18V14.2C127.606 13.72 127.476 13.39 127.216 13.21C126.956 13.01 126.486 12.91 125.806 12.91V11.8H130.726V12.91C130.046 12.91 129.576 13.01 129.316 13.21C129.056 13.39 128.926 13.72 128.926 14.2V28H127.576L119.236 14.5V25.6C119.236 26.08 119.366 26.42 119.626 26.62C119.886 26.8 120.356 26.89 121.036 26.89V28H116.116V26.89C116.796 26.89 117.266 26.8 117.526 26.62C117.786 26.42 117.916 26.08 117.916 25.6ZM132.054 26.89C132.694 26.89 133.154 26.79 133.434 26.59C133.714 26.39 133.854 26.06 133.854 25.6V14.2C133.854 13.74 133.714 13.41 133.434 13.21C133.154 13.01 132.694 12.91 132.054 12.91V11.8H139.194C141.094 11.8 142.494 12.32 143.394 13.36C144.294 14.4 144.744 16.02 144.744 18.22V21.58C144.744 25.86 142.894 28 139.194 28H132.054V26.89ZM139.194 12.97H137.214V26.83H139.194C139.874 26.83 140.414 26.57 140.814 26.05C141.234 25.51 141.444 24.8 141.444 23.92V15.88C141.444 15 141.234 14.3 140.814 13.78C140.414 13.24 139.874 12.97 139.194 12.97ZM152.709 11.35C154.549 11.35 155.969 11.91 156.969 13.03C157.969 14.15 158.469 15.73 158.469 17.77V22.03C158.469 26.31 156.549 28.45 152.709 28.45C150.829 28.45 149.389 27.9 148.389 26.8C147.389 25.7 146.889 24.11 146.889 22.03V17.77C146.889 15.65 147.379 14.05 148.359 12.97C149.359 11.89 150.809 11.35 152.709 11.35ZM152.709 27.28C153.429 27.28 154.019 27.02 154.479 26.5C154.939 25.96 155.169 25.27 155.169 24.43V15.4C155.169 14.56 154.939 13.87 154.479 13.33C154.019 12.79 153.429 12.52 152.709 12.52C152.009 12.52 151.419 12.8 150.939 13.36C150.479 13.9 150.249 14.58 150.249 15.4V24.43C150.249 25.29 150.469 25.98 150.909 26.5C151.369 27.02 151.969 27.28 152.709 27.28ZM42.8304 62.89C43.4704 62.89 43.9304 62.79 44.2104 62.59C44.4904 62.39 44.6304 62.06 44.6304 61.6V50.2C44.6304 49.74 44.4904 49.41 44.2104 49.21C43.9304 49.01 43.4704 48.91 42.8304 48.91V47.8H49.9104C51.7304 47.8 53.0704 48.23 53.9304 49.09C54.8104 49.93 55.2504 51.23 55.2504 52.99C55.2504 54.71 54.8104 55.99 53.9304 56.83C53.0704 57.65 51.7304 58.06 49.9104 58.06H49.1304V56.95H49.9104C50.5704 56.95 51.1004 56.68 51.5004 56.14C51.9004 55.6 52.1004 54.89 52.1004 54.01V51.88C52.1004 51 51.9004 50.3 51.5004 49.78C51.1004 49.24 50.5704 48.97 49.9104 48.97H47.9304V61.6C47.9304 62.06 48.0704 62.39 48.3504 62.59C48.6304 62.79 49.0904 62.89 49.7304 62.89V64H42.8304V62.89ZM56.512 62.89C57.152 62.89 57.612 62.79 57.892 62.59C58.172 62.39 58.312 62.06 58.312 61.6V50.2C58.312 49.74 58.172 49.41 57.892 49.21C57.612 49.01 57.152 48.91 56.512 48.91V47.8H65.392C65.912 47.8 66.282 47.76 66.502 47.68C66.722 47.58 66.842 47.43 66.862 47.23H67.852L69.082 52.09L68.092 52.36C67.732 51.4 67.382 50.68 67.042 50.2C66.722 49.7 66.302 49.37 65.782 49.21C65.282 49.05 64.592 48.97 63.712 48.97H61.582V55.42H63.742C64.522 55.42 64.912 54.9 64.912 53.86H65.872V58.42H64.912C64.912 57.2 64.522 56.59 63.742 56.59H61.582V62.83H64.702C65.602 62.83 66.292 62.73 66.772 62.53C67.272 62.33 67.632 61.95 67.852 61.39C68.092 60.81 68.272 59.97 68.392 58.87H69.382V64.63H68.362C68.282 64.39 68.092 64.22 67.792 64.12C67.492 64.04 66.992 64 66.292 64H56.512V62.89ZM70.5745 62.89C71.2145 62.89 71.6745 62.79 71.9545 62.59C72.2345 62.39 72.3745 62.06 72.3745 61.6V50.2C72.3745 49.74 72.2345 49.41 71.9545 49.21C71.6745 49.01 71.2145 48.91 70.5745 48.91V47.8H77.7145C79.6145 47.8 81.0145 48.32 81.9145 49.36C82.8145 50.4 83.2645 52.02 83.2645 54.22V57.58C83.2645 61.86 81.4145 64 77.7145 64H70.5745V62.89ZM77.7145 48.97H75.7345V62.83H77.7145C78.3945 62.83 78.9345 62.57 79.3345 62.05C79.7545 61.51 79.9645 60.8 79.9645 59.92V51.88C79.9645 51 79.7545 50.3 79.3345 49.78C78.9345 49.24 78.3945 48.97 77.7145 48.97ZM84.93 62.89C85.57 62.89 86.03 62.79 86.31 62.59C86.59 62.39 86.73 62.06 86.73 61.6V50.2C86.73 49.74 86.59 49.41 86.31 49.21C86.03 49.01 85.57 48.91 84.93 48.91V47.8H91.83V48.91C91.19 48.91 90.73 49.01 90.45 49.21C90.17 49.41 90.03 49.74 90.03 50.2V61.6C90.03 62.06 90.17 62.39 90.45 62.59C90.73 62.79 91.19 62.89 91.83 62.89V64H84.93V62.89ZM93.2796 62.89C93.9196 62.89 94.3796 62.79 94.6596 62.59C94.9396 62.39 95.0796 62.06 95.0796 61.6V50.2C95.0796 49.74 94.9396 49.41 94.6596 49.21C94.3796 49.01 93.9196 48.91 93.2796 48.91V47.8H100.42C102.32 47.8 103.72 48.32 104.62 49.36C105.52 50.4 105.97 52.02 105.97 54.22V57.58C105.97 61.86 104.12 64 100.42 64H93.2796V62.89ZM100.42 48.97H98.4396V62.83H100.42C101.1 62.83 101.64 62.57 102.04 62.05C102.46 61.51 102.67 60.8 102.67 59.92V51.88C102.67 51 102.46 50.3 102.04 49.78C101.64 49.24 101.1 48.97 100.42 48.97ZM113.935 47.35C115.775 47.35 117.195 47.91 118.195 49.03C119.195 50.15 119.695 51.73 119.695 53.77V58.03C119.695 62.31 117.775 64.45 113.935 64.45C112.055 64.45 110.615 63.9 109.615 62.8C108.615 61.7 108.115 60.11 108.115 58.03V53.77C108.115 51.65 108.605 50.05 109.585 48.97C110.585 47.89 112.035 47.35 113.935 47.35ZM113.935 63.28C114.655 63.28 115.245 63.02 115.705 62.5C116.165 61.96 116.395 61.27 116.395 60.43V51.4C116.395 50.56 116.165 49.87 115.705 49.33C115.245 48.79 114.655 48.52 113.935 48.52C113.235 48.52 112.645 48.8 112.165 49.36C111.705 49.9 111.475 50.58 111.475 51.4V60.43C111.475 61.29 111.695 61.98 112.135 62.5C112.595 63.02 113.195 63.28 113.935 63.28Z" fill="black"/>
<path d="M298.186 34.89C298.826 34.89 299.286 34.79 299.566 34.59C299.846 34.39 299.986 34.06 299.986 33.6V15.9C299.986 15.44 299.846 15.11 299.566 14.91C299.286 14.71 298.826 14.61 298.186 14.61V13.5H307.036C307.496 13.5 307.826 13.42 308.026 13.26C308.226 13.08 308.356 12.78 308.416 12.36H309.436L310.756 17.79L309.736 18.06C309.396 17.1 309.056 16.38 308.716 15.9C308.396 15.42 307.976 15.1 307.456 14.94C306.956 14.78 306.256 14.7 305.356 14.7H303.346V23.55H304.126C305.506 23.55 306.196 22.83 306.196 21.39H307.306V26.91H306.196C306.196 26.15 306.026 25.6 305.686 25.26C305.366 24.92 304.846 24.75 304.126 24.75H303.346V34.8H306.586C307.486 34.8 308.176 34.7 308.656 34.5C309.156 34.3 309.526 33.92 309.766 33.36C310.006 32.8 310.186 31.97 310.306 30.87H311.356V36.93H310.246C310.166 36.59 309.966 36.35 309.646 36.21C309.346 36.07 308.856 36 308.176 36H298.186V34.89ZM314.308 33.6V22.2C314.308 21.74 314.168 21.41 313.888 21.21C313.608 21.01 313.148 20.91 312.508 20.91V19.8H317.818L321.448 30.78L324.538 19.8H329.998V20.82C329.318 20.82 328.848 20.92 328.588 21.12C328.328 21.3 328.198 21.63 328.198 22.11V33.6C328.198 34.08 328.328 34.42 328.588 34.62C328.848 34.8 329.318 34.89 329.998 34.89V36H323.338V34.89C324.018 34.89 324.488 34.8 324.748 34.62C325.008 34.42 325.138 34.08 325.138 33.6V22.29L321.358 36H320.128L315.628 22.26V33.6C315.628 34.08 315.758 34.42 316.018 34.62C316.278 34.8 316.748 34.89 317.428 34.89V36H312.508V34.89C313.188 34.89 313.658 34.8 313.918 34.62C314.178 34.42 314.308 34.08 314.308 33.6ZM258.997 70.89C259.637 70.89 260.097 70.79 260.377 70.59C260.657 70.39 260.797 70.06 260.797 69.6V58.2C260.797 57.74 260.657 57.41 260.377 57.21C260.097 57.01 259.637 56.91 258.997 56.91V55.8H266.077C267.897 55.8 269.237 56.23 270.097 57.09C270.977 57.93 271.417 59.23 271.417 60.99C271.417 62.71 270.977 63.99 270.097 64.83C269.237 65.65 267.897 66.06 266.077 66.06H265.297V64.95H266.077C266.737 64.95 267.267 64.68 267.667 64.14C268.067 63.6 268.267 62.89 268.267 62.01V59.88C268.267 59 268.067 58.3 267.667 57.78C267.267 57.24 266.737 56.97 266.077 56.97H264.097V69.6C264.097 70.06 264.237 70.39 264.517 70.59C264.797 70.79 265.257 70.89 265.897 70.89V72H258.997V70.89ZM272.679 70.89C273.319 70.89 273.779 70.79 274.059 70.59C274.339 70.39 274.479 70.06 274.479 69.6V58.2C274.479 57.74 274.339 57.41 274.059 57.21C273.779 57.01 273.319 56.91 272.679 56.91V55.8H279.759C281.599 55.8 282.949 56.22 283.809 57.06C284.669 57.9 285.099 59.21 285.099 60.99C285.099 61.85 284.879 62.6 284.439 63.24C283.999 63.86 283.299 64.41 282.339 64.89C284.019 65.59 284.859 66.84 284.859 68.64C284.859 69.26 284.979 69.79 285.219 70.23C285.479 70.67 285.789 70.89 286.149 70.89H286.329V72H286.059C284.599 72 283.519 71.73 282.819 71.19C282.139 70.65 281.799 69.8 281.799 68.64C281.799 67.78 281.579 67.04 281.139 66.42C280.699 65.78 280.189 65.46 279.609 65.46H278.979V64.35H279.759C280.419 64.35 280.949 64.08 281.349 63.54C281.749 63 281.949 62.29 281.949 61.41V59.88C281.949 59 281.749 58.3 281.349 57.78C280.949 57.24 280.419 56.97 279.759 56.97H277.779V69.6C277.779 70.06 277.919 70.39 278.199 70.59C278.479 70.79 278.939 70.89 279.579 70.89V72H272.679V70.89ZM293.51 55.35C295.35 55.35 296.77 55.91 297.77 57.03C298.77 58.15 299.27 59.73 299.27 61.77V66.03C299.27 70.31 297.35 72.45 293.51 72.45C291.63 72.45 290.19 71.9 289.19 70.8C288.19 69.7 287.69 68.11 287.69 66.03V61.77C287.69 59.65 288.18 58.05 289.16 56.97C290.16 55.89 291.61 55.35 293.51 55.35ZM293.51 71.28C294.23 71.28 294.82 71.02 295.28 70.5C295.74 69.96 295.97 69.27 295.97 68.43V59.4C295.97 58.56 295.74 57.87 295.28 57.33C294.82 56.79 294.23 56.52 293.51 56.52C292.81 56.52 292.22 56.8 291.74 57.36C291.28 57.9 291.05 58.58 291.05 59.4V68.43C291.05 69.29 291.27 69.98 291.71 70.5C292.17 71.02 292.77 71.28 293.51 71.28ZM301.185 70.89C301.825 70.89 302.285 70.79 302.565 70.59C302.845 70.39 302.985 70.06 302.985 69.6V58.2C302.985 57.74 302.845 57.41 302.565 57.21C302.285 57.01 301.825 56.91 301.185 56.91V55.8H308.325C310.225 55.8 311.625 56.32 312.525 57.36C313.425 58.4 313.875 60.02 313.875 62.22V65.58C313.875 69.86 312.025 72 308.325 72H301.185V70.89ZM308.325 56.97H306.345V70.83H308.325C309.005 70.83 309.545 70.57 309.945 70.05C310.365 69.51 310.575 68.8 310.575 67.92V59.88C310.575 59 310.365 58.3 309.945 57.78C309.545 57.24 309.005 56.97 308.325 56.97ZM327.42 65.88C327.42 70.16 325.75 72.3 322.41 72.3C320.69 72.3 319.33 71.73 318.33 70.59C317.35 69.45 316.86 67.88 316.86 65.88V58.2C316.86 57.74 316.72 57.41 316.44 57.21C316.16 57.01 315.7 56.91 315.06 56.91V55.8H321.96V56.91C321.32 56.91 320.86 57.01 320.58 57.21C320.3 57.41 320.16 57.74 320.16 58.2V67.92C320.16 68.84 320.42 69.59 320.94 70.17C321.48 70.75 322.18 71.04 323.04 71.04C323.96 71.04 324.7 70.6 325.26 69.72C325.84 68.84 326.13 67.71 326.13 66.33V58.2C326.13 57.72 326 57.39 325.74 57.21C325.48 57.01 325.01 56.91 324.33 56.91V55.8H329.22V56.91C328.54 56.91 328.07 57.01 327.81 57.21C327.55 57.39 327.42 57.72 327.42 58.2V65.88ZM336.609 55.5C337.329 55.5 337.849 55.53 338.169 55.59C338.489 55.65 338.719 55.52 338.859 55.2H339.879L341.109 60.03L340.089 60.3C339.729 59.36 339.389 58.63 339.069 58.11C338.749 57.59 338.389 57.23 337.989 57.03C337.609 56.81 337.139 56.7 336.579 56.7C335.839 56.7 335.219 57.01 334.719 57.63C334.219 58.23 333.969 58.98 333.969 59.88V68.07C333.969 68.99 334.229 69.74 334.749 70.32C335.289 70.9 335.989 71.19 336.849 71.19C337.769 71.19 338.509 70.75 339.069 69.87C339.649 68.99 339.939 67.86 339.939 66.48V66H341.169V66.03C341.169 68.21 340.759 69.83 339.939 70.89C339.139 71.93 337.899 72.45 336.219 72.45C334.499 72.45 333.139 71.88 332.139 70.74C331.159 69.6 330.669 68.03 330.669 66.03V61.92C330.669 57.64 332.649 55.5 336.609 55.5ZM337.689 75.3C337.689 74.92 337.539 74.61 337.239 74.37C336.939 74.15 336.539 74.04 336.039 74.04H334.929V72.99L335.529 72.3L336.879 72.33L336.309 72.96C337.189 72.96 337.879 73.16 338.379 73.56C338.899 73.96 339.159 74.54 339.159 75.3C339.159 76.02 338.939 76.6 338.499 77.04C338.059 77.5 337.459 77.73 336.699 77.73H335.529V76.59H336.039C337.139 76.59 337.689 76.16 337.689 75.3ZM344.861 69.57C344.721 69.97 344.811 70.29 345.131 70.53C345.471 70.77 345.981 70.89 346.661 70.89V72H341.651V70.89C342.191 70.89 342.601 70.79 342.881 70.59C343.161 70.39 343.371 70.05 343.511 69.57L348.011 55.68H349.451L354.131 69.63C354.311 70.15 354.511 70.49 354.731 70.65C354.951 70.81 355.371 70.89 355.991 70.89V72H349.091V70.89C350.571 70.89 351.181 70.48 350.921 69.66L350.291 67.65H345.491L344.861 69.57ZM345.881 66.51H349.931L347.951 60.21L345.881 66.51ZM345.581 53.13C345.581 52.77 345.761 52.46 346.121 52.2C346.501 51.92 346.941 51.78 347.441 51.78C347.901 51.78 348.321 51.86 348.701 52.02C349.081 52.16 349.431 52.31 349.751 52.47C350.071 52.63 350.371 52.71 350.651 52.71C351.131 52.71 351.541 52.5 351.881 52.08L352.631 52.5C352.151 53.62 351.441 54.18 350.501 54.18C350.041 54.18 349.661 54.12 349.361 54C349.061 53.86 348.781 53.73 348.521 53.61C348.261 53.47 347.961 53.4 347.621 53.4C347.361 53.4 347.131 53.48 346.931 53.64C346.751 53.8 346.631 54.01 346.571 54.27C345.911 54.07 345.581 53.69 345.581 53.13ZM362.768 55.35C364.608 55.35 366.028 55.91 367.028 57.03C368.028 58.15 368.528 59.73 368.528 61.77V66.03C368.528 70.31 366.608 72.45 362.768 72.45C360.888 72.45 359.448 71.9 358.448 70.8C357.448 69.7 356.948 68.11 356.948 66.03V61.77C356.948 59.65 357.438 58.05 358.418 56.97C359.418 55.89 360.868 55.35 362.768 55.35ZM362.768 71.28C363.488 71.28 364.078 71.02 364.538 70.5C364.998 69.96 365.228 69.27 365.228 68.43V59.4C365.228 58.56 364.998 57.87 364.538 57.33C364.078 56.79 363.488 56.52 362.768 56.52C362.068 56.52 361.478 56.8 360.998 57.36C360.538 57.9 360.308 58.58 360.308 59.4V68.43C360.308 69.29 360.528 69.98 360.968 70.5C361.428 71.02 362.028 71.28 362.768 71.28Z" fill="black"/>
<path d="M492.942 14.4C492.262 14.4 491.662 14.66 491.142 15.18C490.642 15.68 490.392 16.28 490.392 16.98C490.392 17.54 490.522 18.1 490.782 18.66C491.062 19.2 491.512 19.82 492.132 20.52L495.162 24.06C496.022 25.06 496.682 25.93 497.142 26.67C497.622 27.39 497.952 28.09 498.132 28.77C498.332 29.43 498.432 30.17 498.432 30.99C498.432 31.97 498.182 32.86 497.682 33.66C497.182 34.46 496.512 35.1 495.672 35.58C494.832 36.06 493.902 36.3 492.882 36.3C492.142 36.3 491.542 36.23 491.082 36.09C490.622 35.95 490.252 35.81 489.972 35.67C489.712 35.53 489.482 35.46 489.282 35.46C489.082 35.46 488.892 35.52 488.712 35.64C488.532 35.74 488.422 35.86 488.382 36H487.332V29.64H488.352C488.632 31.24 489.132 32.5 489.852 33.42C490.572 34.32 491.412 34.77 492.372 34.77C493.212 34.77 493.872 34.49 494.352 33.93C494.852 33.37 495.102 32.61 495.102 31.65C495.102 30.87 494.912 30.09 494.532 29.31C494.152 28.51 493.542 27.63 492.702 26.67L490.182 23.76C489.142 22.54 488.412 21.51 487.992 20.67C487.572 19.81 487.362 18.9 487.362 17.94C487.362 17.1 487.612 16.32 488.112 15.6C488.612 14.88 489.262 14.3 490.062 13.86C490.882 13.42 491.752 13.2 492.672 13.2C493.432 13.2 493.972 13.14 494.292 13.02C494.612 12.9 494.852 12.68 495.012 12.36H496.032L497.352 17.79L496.332 18.06C495.952 17.06 495.602 16.3 495.282 15.78C494.962 15.26 494.622 14.9 494.262 14.7C493.922 14.5 493.482 14.4 492.942 14.4ZM502.121 33.57C501.981 33.97 502.071 34.29 502.391 34.53C502.731 34.77 503.241 34.89 503.921 34.89V36H498.911V34.89C499.451 34.89 499.861 34.79 500.141 34.59C500.421 34.39 500.631 34.05 500.771 33.57L505.271 19.68H506.711L511.391 33.63C511.571 34.15 511.771 34.49 511.991 34.65C512.211 34.81 512.631 34.89 513.251 34.89V36H506.351V34.89C507.831 34.89 508.441 34.48 508.181 33.66L507.551 31.65H502.751L502.121 33.57ZM503.141 30.51H507.191L505.211 24.21L503.141 30.51ZM513.729 34.89C514.369 34.89 514.829 34.79 515.109 34.59C515.389 34.39 515.529 34.06 515.529 33.6V22.2C515.529 21.74 515.389 21.41 515.109 21.21C514.829 21.01 514.369 20.91 513.729 20.91V19.8H520.629V20.91C519.989 20.91 519.529 21.01 519.249 21.21C518.969 21.41 518.829 21.74 518.829 22.2V33.6C518.829 34.06 518.969 34.39 519.249 34.59C519.529 34.79 519.989 34.89 520.629 34.89V36H513.729V34.89ZM523.878 33.6V22.2C523.878 21.74 523.738 21.41 523.458 21.21C523.178 21.01 522.718 20.91 522.078 20.91V19.8H527.118L533.568 30.18V22.2C533.568 21.72 533.438 21.39 533.178 21.21C532.918 21.01 532.448 20.91 531.768 20.91V19.8H536.688V20.91C536.008 20.91 535.538 21.01 535.278 21.21C535.018 21.39 534.888 21.72 534.888 22.2V36H533.538L525.198 22.5V33.6C525.198 34.08 525.328 34.42 525.588 34.62C525.848 34.8 526.318 34.89 526.998 34.89V36H522.078V34.89C522.758 34.89 523.228 34.8 523.488 34.62C523.748 34.42 523.878 34.08 523.878 33.6ZM538.016 34.89C538.656 34.89 539.116 34.79 539.396 34.59C539.676 34.39 539.816 34.06 539.816 33.6V22.2C539.816 21.74 539.676 21.41 539.396 21.21C539.116 21.01 538.656 20.91 538.016 20.91V19.8H545.156C547.056 19.8 548.456 20.32 549.356 21.36C550.256 22.4 550.706 24.02 550.706 26.22V29.58C550.706 33.86 548.856 36 545.156 36H538.016V34.89ZM545.156 20.97H543.176V34.83H545.156C545.836 34.83 546.376 34.57 546.776 34.05C547.196 33.51 547.406 32.8 547.406 31.92V23.88C547.406 23 547.196 22.3 546.776 21.78C546.376 21.24 545.836 20.97 545.156 20.97ZM558.671 19.35C560.511 19.35 561.931 19.91 562.931 21.03C563.931 22.15 564.431 23.73 564.431 25.77V30.03C564.431 34.31 562.511 36.45 558.671 36.45C556.791 36.45 555.351 35.9 554.351 34.8C553.351 33.7 552.851 32.11 552.851 30.03V25.77C552.851 23.65 553.341 22.05 554.321 20.97C555.321 19.89 556.771 19.35 558.671 19.35ZM558.671 35.28C559.391 35.28 559.981 35.02 560.441 34.5C560.901 33.96 561.131 33.27 561.131 32.43V23.4C561.131 22.56 560.901 21.87 560.441 21.33C559.981 20.79 559.391 20.52 558.671 20.52C557.971 20.52 557.381 20.8 556.901 21.36C556.441 21.9 556.211 22.58 556.211 23.4V32.43C556.211 33.29 556.431 33.98 556.871 34.5C557.331 35.02 557.931 35.28 558.671 35.28ZM572.117 34.89C572.757 34.89 573.217 34.79 573.497 34.59C573.777 34.39 573.917 34.06 573.917 33.6V22.2C573.917 21.74 573.777 21.41 573.497 21.21C573.217 21.01 572.757 20.91 572.117 20.91V19.8H579.197C581.017 19.8 582.357 20.23 583.217 21.09C584.097 21.93 584.537 23.23 584.537 24.99C584.537 26.71 584.097 27.99 583.217 28.83C582.357 29.65 581.017 30.06 579.197 30.06H578.417V28.95H579.197C579.857 28.95 580.387 28.68 580.787 28.14C581.187 27.6 581.387 26.89 581.387 26.01V23.88C581.387 23 581.187 22.3 580.787 21.78C580.387 21.24 579.857 20.97 579.197 20.97H577.217V33.6C577.217 34.06 577.357 34.39 577.637 34.59C577.917 34.79 578.377 34.89 579.017 34.89V36H572.117V34.89ZM587.082 33.57C586.942 33.97 587.032 34.29 587.352 34.53C587.692 34.77 588.202 34.89 588.882 34.89V36H583.872V34.89C584.412 34.89 584.822 34.79 585.102 34.59C585.382 34.39 585.592 34.05 585.732 33.57L590.232 19.68H591.672L596.352 33.63C596.532 34.15 596.732 34.49 596.952 34.65C597.172 34.81 597.592 34.89 598.212 34.89V36H591.312V34.89C592.792 34.89 593.402 34.48 593.142 33.66L592.512 31.65H587.712L587.082 33.57ZM588.102 30.51H592.152L590.172 24.21L588.102 30.51ZM598.69 34.89C599.33 34.89 599.79 34.79 600.07 34.59C600.35 34.39 600.49 34.06 600.49 33.6V22.2C600.49 21.74 600.35 21.41 600.07 21.21C599.79 21.01 599.33 20.91 598.69 20.91V19.8H605.77C607.61 19.8 608.96 20.22 609.82 21.06C610.68 21.9 611.11 23.21 611.11 24.99C611.11 25.85 610.89 26.6 610.45 27.24C610.01 27.86 609.31 28.41 608.35 28.89C610.03 29.59 610.87 30.84 610.87 32.64C610.87 33.26 610.99 33.79 611.23 34.23C611.49 34.67 611.8 34.89 612.16 34.89H612.34V36H612.07C610.61 36 609.53 35.73 608.83 35.19C608.15 34.65 607.81 33.8 607.81 32.64C607.81 31.78 607.59 31.04 607.15 30.42C606.71 29.78 606.2 29.46 605.62 29.46H604.99V28.35H605.77C606.43 28.35 606.96 28.08 607.36 27.54C607.76 27 607.96 26.29 607.96 25.41V23.88C607.96 23 607.76 22.3 607.36 21.78C606.96 21.24 606.43 20.97 605.77 20.97H603.79V33.6C603.79 34.06 603.93 34.39 604.21 34.59C604.49 34.79 604.95 34.89 605.59 34.89V36H598.69V34.89ZM615.471 33.57C615.331 33.97 615.421 34.29 615.741 34.53C616.081 34.77 616.591 34.89 617.271 34.89V36H612.261V34.89C612.801 34.89 613.211 34.79 613.491 34.59C613.771 34.39 613.981 34.05 614.121 33.57L618.621 19.68H620.061L624.741 33.63C624.921 34.15 625.121 34.49 625.341 34.65C625.561 34.81 625.981 34.89 626.601 34.89V36H619.701V34.89C621.181 34.89 621.791 34.48 621.531 33.66L620.901 31.65H616.101L615.471 33.57ZM616.491 30.51H620.541L618.561 24.21L616.491 30.51ZM507.664 70.89C508.304 70.89 508.764 70.79 509.044 70.59C509.324 70.39 509.464 70.06 509.464 69.6V58.2C509.464 57.74 509.324 57.41 509.044 57.21C508.764 57.01 508.304 56.91 507.664 56.91V55.8H516.544C517.064 55.8 517.434 55.76 517.654 55.68C517.874 55.58 517.994 55.43 518.014 55.23H519.004L520.234 60.09L519.244 60.36C518.884 59.4 518.534 58.68 518.194 58.2C517.874 57.7 517.454 57.37 516.934 57.21C516.434 57.05 515.744 56.97 514.864 56.97H512.734V63.42H514.894C515.674 63.42 516.064 62.9 516.064 61.86H517.024V66.42H516.064C516.064 65.2 515.674 64.59 514.894 64.59H512.734V70.83H515.854C516.754 70.83 517.444 70.73 517.924 70.53C518.424 70.33 518.784 69.95 519.004 69.39C519.244 68.81 519.424 67.97 519.544 66.87H520.534V72.63H519.514C519.434 72.39 519.244 72.22 518.944 72.12C518.644 72.04 518.144 72 517.444 72H507.664V70.89ZM523.527 69.6V58.2C523.527 57.74 523.387 57.41 523.107 57.21C522.827 57.01 522.367 56.91 521.727 56.91V55.8H526.767L533.217 66.18V58.2C533.217 57.72 533.087 57.39 532.827 57.21C532.567 57.01 532.097 56.91 531.417 56.91V55.8H536.337V56.91C535.657 56.91 535.187 57.01 534.927 57.21C534.667 57.39 534.537 57.72 534.537 58.2V72H533.187L524.847 58.5V69.6C524.847 70.08 524.977 70.42 525.237 70.62C525.497 70.8 525.967 70.89 526.647 70.89V72H521.727V70.89C522.407 70.89 522.877 70.8 523.137 70.62C523.397 70.42 523.527 70.08 523.527 69.6ZM540.064 70.89C540.704 70.89 541.164 70.79 541.444 70.59C541.724 70.39 541.864 70.06 541.864 69.6V56.97H541.354C540.714 56.97 540.204 57.07 539.824 57.27C539.444 57.47 539.114 57.86 538.834 58.44C538.574 59.02 538.284 59.89 537.964 61.05L536.944 60.78L537.964 55.02H538.894C538.954 55.54 539.414 55.8 540.274 55.8H546.814C547.674 55.8 548.134 55.54 548.194 55.02H549.124L550.144 60.78L549.124 61.05C548.804 59.89 548.504 59.02 548.224 58.44C547.964 57.86 547.644 57.47 547.264 57.27C546.884 57.07 546.374 56.97 545.734 56.97H545.164V69.6C545.164 70.06 545.304 70.39 545.584 70.59C545.864 70.79 546.324 70.89 546.964 70.89V72H540.064V70.89ZM550.877 70.89C551.517 70.89 551.977 70.79 552.257 70.59C552.537 70.39 552.677 70.06 552.677 69.6V58.2C552.677 57.74 552.537 57.41 552.257 57.21C551.977 57.01 551.517 56.91 550.877 56.91V55.8H557.957C559.797 55.8 561.147 56.22 562.007 57.06C562.867 57.9 563.297 59.21 563.297 60.99C563.297 61.85 563.077 62.6 562.637 63.24C562.197 63.86 561.497 64.41 560.537 64.89C562.217 65.59 563.057 66.84 563.057 68.64C563.057 69.26 563.177 69.79 563.417 70.23C563.677 70.67 563.987 70.89 564.347 70.89H564.527V72H564.257C562.797 72 561.717 71.73 561.017 71.19C560.337 70.65 559.997 69.8 559.997 68.64C559.997 67.78 559.777 67.04 559.337 66.42C558.897 65.78 558.387 65.46 557.807 65.46H557.177V64.35H557.957C558.617 64.35 559.147 64.08 559.547 63.54C559.947 63 560.147 62.29 560.147 61.41V59.88C560.147 59 559.947 58.3 559.547 57.78C559.147 57.24 558.617 56.97 557.957 56.97H555.977V69.6C555.977 70.06 556.117 70.39 556.397 70.59C556.677 70.79 557.137 70.89 557.777 70.89V72H550.877V70.89ZM565.408 70.89C566.048 70.89 566.508 70.79 566.788 70.59C567.068 70.39 567.208 70.06 567.208 69.6V58.2C567.208 57.74 567.068 57.41 566.788 57.21C566.508 57.01 566.048 56.91 565.408 56.91V55.8H574.288C574.808 55.8 575.178 55.76 575.398 55.68C575.618 55.58 575.738 55.43 575.758 55.23H576.748L577.978 60.09L576.988 60.36C576.628 59.4 576.278 58.68 575.938 58.2C575.618 57.7 575.198 57.37 574.678 57.21C574.178 57.05 573.488 56.97 572.608 56.97H570.478V63.42H572.638C573.418 63.42 573.808 62.9 573.808 61.86H574.768V66.42H573.808C573.808 65.2 573.418 64.59 572.638 64.59H570.478V70.83H573.598C574.498 70.83 575.188 70.73 575.668 70.53C576.168 70.33 576.528 69.95 576.748 69.39C576.988 68.81 577.168 67.97 577.288 66.87H578.278V72.63H577.258C577.178 72.39 576.988 72.22 576.688 72.12C576.388 72.04 575.888 72 575.188 72H565.408V70.89ZM586.221 55.5C586.941 55.5 587.461 55.53 587.781 55.59C588.101 55.65 588.331 55.52 588.471 55.2H589.491L590.721 60.03L589.701 60.3C589.341 59.36 589.001 58.63 588.681 58.11C588.361 57.59 588.001 57.23 587.601 57.03C587.221 56.81 586.751 56.7 586.191 56.7C585.391 56.7 584.701 57.01 584.121 57.63C583.541 58.25 583.251 59 583.251 59.88V68.22C583.251 69.08 583.451 69.78 583.851 70.32C584.271 70.86 584.821 71.13 585.501 71.13C586.201 71.13 586.751 70.87 587.151 70.35C587.571 69.81 587.781 69.1 587.781 68.22V65.91C587.781 64.85 587.071 64.32 585.651 64.32V63.33H591.591V64.32C590.991 64.32 590.691 64.67 590.691 65.37V72H590.001L589.161 70.89C588.241 71.83 587.011 72.3 585.471 72.3C581.791 72.3 579.951 70.16 579.951 65.88V61.92C579.951 59.92 580.511 58.35 581.631 57.21C582.751 56.07 584.281 55.5 586.221 55.5ZM595.168 69.57C595.028 69.97 595.118 70.29 595.438 70.53C595.778 70.77 596.288 70.89 596.968 70.89V72H591.958V70.89C592.498 70.89 592.908 70.79 593.188 70.59C593.468 70.39 593.678 70.05 593.818 69.57L598.318 55.68H599.758L604.438 69.63C604.618 70.15 604.818 70.49 605.038 70.65C605.258 70.81 605.678 70.89 606.298 70.89V72H599.398V70.89C600.878 70.89 601.488 70.48 601.228 69.66L600.598 67.65H595.798L595.168 69.57ZM596.188 66.51H600.238L598.258 60.21L596.188 66.51Z" fill="black"/>
</svg>
